<mxfile host="app.diagrams.net" agent="Mozilla/5.0 (Windows NT 10.0; Win64; x64) AppleWebKit/537.36 (KHTML, like Gecko) Chrome/128.0.0.0 Safari/537.36" version="24.7.15">
  <diagram name="ページ1" id="KBgHFdBxlv_v_TW17oP_">
    <mxGraphModel dx="1050" dy="557" grid="1" gridSize="10" guides="1" tooltips="1" connect="1" arrows="1" fold="1" page="1" pageScale="1" pageWidth="827" pageHeight="1169" math="0" shadow="0">
      <root>
        <mxCell id="0" />
        <mxCell id="1" parent="0" />
        <mxCell id="QSeEAFgwMbhkrHiqbxVT-1" value="&lt;p style=&quot;margin:0px;margin-top:4px;text-align:center;&quot;&gt;&lt;font style=&quot;&quot; face=&quot;Helvetica&quot;&gt;&lt;span style=&quot;box-sizing: border-box; font-weight: bolder; scroll-behavior: smooth; color: rgb(34, 34, 34); background-color: rgb(255, 255, 255);&quot;&gt;&lt;font style=&quot;font-size: 18px;&quot;&gt;QuadraticEquation&lt;/font&gt;&lt;/span&gt;&lt;br&gt;&lt;/font&gt;&lt;/p&gt;&lt;hr size=&quot;1&quot; style=&quot;border-style:solid;&quot;&gt;&lt;p style=&quot;margin:0px;margin-left:4px;&quot;&gt;&lt;font size=&quot;3&quot; face=&quot;AqPYF1UfpycH53x-E66w&quot;&gt;-&amp;nbsp;&lt;span style=&quot;background-color: rgb(255, 255, 255); color: rgb(34, 34, 34);&quot;&gt;double a&lt;/span&gt;&lt;/font&gt;&lt;/p&gt;&lt;p style=&quot;margin:0px;margin-left:4px;&quot;&gt;&lt;span style=&quot;background-color: rgb(255, 255, 255); color: rgb(34, 34, 34);&quot;&gt;&lt;font size=&quot;3&quot; face=&quot;AqPYF1UfpycH53x-E66w&quot;&gt;- double b&lt;/font&gt;&lt;/span&gt;&lt;/p&gt;&lt;p style=&quot;margin:0px;margin-left:4px;&quot;&gt;&lt;span style=&quot;background-color: rgb(255, 255, 255); color: rgb(34, 34, 34);&quot;&gt;&lt;font size=&quot;3&quot; face=&quot;AqPYF1UfpycH53x-E66w&quot;&gt;- double c&lt;/font&gt;&lt;/span&gt;&lt;/p&gt;&lt;hr size=&quot;1&quot; style=&quot;border-style:solid;&quot;&gt;&lt;p style=&quot;margin:0px;margin-left:4px;&quot;&gt;&lt;font size=&quot;3&quot; face=&quot;AqPYF1UfpycH53x-E66w&quot;&gt;+ getter()&lt;/font&gt;&lt;/p&gt;&lt;p style=&quot;margin:0px;margin-left:4px;&quot;&gt;&lt;font size=&quot;3&quot; face=&quot;AqPYF1UfpycH53x-E66w&quot;&gt;+ setter()&lt;/font&gt;&lt;/p&gt;&lt;p style=&quot;margin:0px;margin-left:4px;&quot;&gt;&lt;font size=&quot;3&quot; face=&quot;AqPYF1UfpycH53x-E66w&quot;&gt;+&amp;nbsp;&lt;span style=&quot;background-color: rgb(255, 255, 255); color: rgb(34, 34, 34);&quot;&gt;getDiscriminant()&lt;/span&gt;&lt;/font&gt;&lt;/p&gt;&lt;p style=&quot;margin:0px;margin-left:4px;&quot;&gt;&lt;font size=&quot;3&quot; face=&quot;AqPYF1UfpycH53x-E66w&quot;&gt;&lt;span style=&quot;color: rgb(34, 34, 34); background-color: rgb(255, 255, 255);&quot;&gt;+ getRoot1()&lt;/span&gt;&lt;span style=&quot;background-color: rgb(255, 255, 255); color: rgb(34, 34, 34);&quot;&gt;&lt;br&gt;&lt;/span&gt;&lt;/font&gt;&lt;/p&gt;&lt;p style=&quot;margin:0px;margin-left:4px;&quot;&gt;&lt;font size=&quot;3&quot; face=&quot;AqPYF1UfpycH53x-E66w&quot;&gt;&lt;span style=&quot;color: rgb(34, 34, 34); background-color: rgb(255, 255, 255);&quot;&gt;+&amp;nbsp;&lt;/span&gt;&lt;span style=&quot;background-color: rgb(255, 255, 255); color: rgb(34, 34, 34);&quot;&gt;getRoot2()&lt;/span&gt;&lt;/font&gt;&lt;/p&gt;&lt;p style=&quot;margin:0px;margin-left:4px;&quot;&gt;&lt;span style=&quot;background-color: rgb(255, 255, 255); color: rgb(34, 34, 34);&quot;&gt;&lt;font size=&quot;3&quot; face=&quot;AqPYF1UfpycH53x-E66w&quot;&gt;+ inputData()&lt;/font&gt;&lt;/span&gt;&lt;/p&gt;&lt;p style=&quot;margin:0px;margin-left:4px;&quot;&gt;&lt;span style=&quot;background-color: rgb(255, 255, 255); color: rgb(34, 34, 34);&quot;&gt;&lt;font size=&quot;3&quot; face=&quot;AqPYF1UfpycH53x-E66w&quot;&gt;+ displayData()&lt;/font&gt;&lt;/span&gt;&lt;/p&gt;&lt;p style=&quot;margin:0px;margin-left:4px;&quot;&gt;&lt;span style=&quot;color: rgb(34, 34, 34); font-family: &amp;quot;Roboto Flex&amp;quot;; font-size: 16px; background-color: rgb(255, 255, 255);&quot;&gt;&lt;br&gt;&lt;/span&gt;&lt;/p&gt;" style="verticalAlign=top;align=left;overflow=fill;html=1;whiteSpace=wrap;" vertex="1" parent="1">
          <mxGeometry x="300" y="100" width="240" height="250" as="geometry" />
        </mxCell>
      </root>
    </mxGraphModel>
  </diagram>
</mxfile>
